<?xml version="1.0" standalone="no"?>
<!DOCTYPE svg PUBLIC "-//W3C//DTD SVG 20010904//EN"
 "http://www.w3.org/TR/2001/REC-SVG-20010904/DTD/svg10.dtd">
<svg version="1.0" xmlns="http://www.w3.org/2000/svg"
 width="300.000000pt" height="343.000000pt" viewBox="0 0 300.000000 343.000000"
 preserveAspectRatio="xMidYMid meet">
<metadata>
Created by potrace 1.10, written by Peter Selinger 2001-2011
</metadata>
<g transform="translate(0.000000,343.000000) scale(0.100000,-0.100000)"
fill="#000000" stroke="none">
<path d="M1405 3138 c-78 -11 -130 -33 -209 -88 -87 -60 -245 -219 -274 -275
-48 -95 -54 -288 -16 -489 6 -32 4 -35 -22 -38 -46 -5 -56 -37 -50 -158 4 -64
15 -137 29 -185 l23 -80 37 -3 c30 -3 36 0 31 12 -3 9 -17 16 -30 16 -22 0
-24 4 -24 44 0 25 -4 47 -9 50 -13 9 -34 134 -29 181 2 25 8 39 16 38 14 -3
16 33 2 42 -20 12 -10 27 15 23 33 -7 39 14 29 115 -4 45 -7 88 -5 96 1 7 -1
11 -6 8 -10 -6 -7 159 3 182 4 9 6 24 5 34 -1 9 2 17 7 17 5 0 10 12 10 26 0
15 8 32 21 40 11 8 21 22 21 30 0 8 7 17 16 21 13 5 13 7 2 14 -10 7 -10 9 0
9 7 0 22 9 34 20 12 11 27 20 34 20 6 0 15 11 18 25 5 21 86 118 86 103 0 -3
19 12 43 33 27 25 55 42 80 45 20 4 37 10 37 14 0 3 16 11 35 17 21 7 35 7 35
2 0 -6 7 -6 19 0 10 6 21 8 24 5 3 -3 21 -1 41 4 20 6 36 7 36 2 0 -5 15 -6
33 -4 21 4 49 -2 82 -17 28 -12 56 -23 63 -25 8 -1 22 -10 31 -18 10 -9 21
-16 26 -16 13 0 94 -70 106 -92 12 -23 2 -40 -11 -18 -5 7 -17 15 -27 16 -14
2 -13 -1 7 -16 14 -11 29 -20 33 -20 12 0 92 -90 92 -103 0 -6 11 -17 24 -24
27 -13 55 -58 46 -73 -3 -6 -2 -10 3 -10 6 0 13 -11 16 -24 3 -13 9 -32 13
-42 4 -12 3 -15 -5 -10 -7 4 -12 1 -12 -9 0 -9 4 -14 9 -10 16 9 24 -15 11
-30 -8 -10 -9 -15 -2 -15 11 0 10 -70 -3 -165 -13 -98 -13 -105 -5 -110 5 -3
12 11 15 32 3 21 8 47 11 58 3 11 9 61 13 110 14 149 -11 259 -81 351 -83 110
-223 237 -298 272 -94 42 -197 56 -305 40z"/>
<path d="M1193 2463 c-18 -7 -16 -23 3 -23 8 0 13 -4 10 -8 -2 -4 5 -9 16 -9
20 -2 20 -1 2 20 -10 12 -19 23 -19 23 0 1 -6 -1 -12 -3z"/>
<path d="M1255 2450 c4 -6 10 -8 15 -5 5 3 11 1 14 -3 3 -5 17 -7 31 -4 15 2
25 0 25 -7 0 -7 -4 -9 -10 -6 -5 3 -10 1 -10 -4 0 -13 10 -14 29 -2 10 7 8 12
-10 25 -26 18 -94 23 -84 6z"/>
<path d="M1139 2312 c-64 -33 -70 -56 -17 -60 31 -3 37 0 32 12 -4 11 0 16 14
16 11 0 22 -7 26 -15 4 -10 20 -15 51 -15 37 0 43 3 34 13 -7 7 -26 11 -46 9
-20 -3 -33 0 -33 7 0 6 18 11 44 11 51 0 83 -9 67 -19 -6 -4 3 -12 20 -18 47
-18 32 6 -22 35 -52 27 -108 25 -171 -8 -46 -24 -55 -25 -38 -5 37 44 161 70
213 44 21 -10 21 -10 3 5 -33 26 -115 21 -177 -12z"/>
<path d="M1696 2315 c-11 -8 -15 -15 -10 -15 6 0 14 4 20 9 5 5 27 11 49 14
l40 4 -40 1 c-22 1 -49 -5 -59 -13z"/>
<path d="M1876 2291 c18 -11 35 -24 38 -30 4 -6 12 -11 18 -11 16 0 -11 29
-43 46 -41 21 -49 17 -13 -5z"/>
<path d="M1745 2291 c11 -5 30 -7 42 -5 12 2 24 0 28 -6 7 -11 -39 -25 -54
-15 -6 3 -11 1 -11 -4 0 -6 10 -12 23 -12 12 -1 48 -3 80 -5 31 -2 57 1 57 5
0 16 -99 51 -142 50 -32 0 -38 -2 -23 -8z"/>
<path d="M1694 2280 c-12 -5 -25 -14 -30 -21 -5 -9 -2 -10 10 -6 10 4 23 7 30
7 7 0 13 7 13 15 0 8 -1 15 -1 14 -1 0 -11 -4 -22 -9z"/>
<path d="M2063 2263 c-7 -2 -13 -12 -13 -20 0 -11 7 -14 27 -9 25 7 26 6 11
-16 -8 -13 -12 -32 -10 -43 5 -20 5 -20 13 0 12 30 10 -112 -2 -165 -6 -25
-12 -58 -14 -75 -2 -16 -4 -32 -4 -35 -1 -3 -6 2 -11 10 -6 9 -10 10 -10 3 0
-6 5 -15 10 -18 16 -10 12 -28 -5 -21 -8 3 -15 1 -15 -3 0 -5 -3 -16 -6 -25
-4 -11 0 -16 14 -16 43 0 49 17 81 237 20 137 -8 220 -66 196z"/>
<path d="M903 2063 c-7 -15 -13 -33 -13 -40 0 -19 22 -63 32 -63 12 0 10 38
-3 45 -6 4 -8 22 -4 46 8 46 5 49 -12 12z"/>
<path d="M2057 2026 c-5 -21 -6 -40 -3 -43 9 -10 18 24 14 54 -3 26 -4 25 -11
-11z"/>
<path d="M1420 2013 c-8 -3 -21 -13 -28 -21 -10 -14 -16 -14 -32 -4 -27 17
-25 -3 2 -22 31 -22 48 -20 48 5 0 11 4 18 9 15 5 -3 23 -3 41 1 l32 6 -23 13
c-26 15 -27 15 -49 7z"/>
<path d="M1581 2006 c-10 -12 -5 -14 34 -14 31 0 45 4 42 11 -6 18 -62 20 -76
3z"/>
<path d="M1991 1783 c-6 -21 -11 -44 -11 -51 0 -7 -4 -11 -9 -8 -5 3 -9 -4 -9
-17 1 -12 -9 -47 -21 -77 -12 -30 -19 -60 -17 -66 3 -7 -3 -22 -11 -34 -18
-25 -27 -144 -13 -169 14 -28 -27 -188 -62 -238 -17 -25 -88 -104 -159 -177
-88 -90 -133 -144 -144 -173 -23 -59 -40 -71 -68 -46 -86 76 -117 108 -117
119 0 7 -37 53 -83 102 -75 81 -137 176 -137 213 0 8 -11 38 -25 68 -15 32
-27 79 -30 120 -12 150 -17 186 -29 210 -7 14 -11 31 -9 38 6 18 -56 213 -69
213 -13 0 -5 -42 26 -140 25 -79 41 -169 51 -285 4 -38 17 -103 29 -145 13
-41 30 -100 40 -131 17 -58 73 -132 163 -213 30 -27 45 -50 46 -68 1 -14 4
-25 6 -23 2 2 40 -32 85 -75 l81 -79 27 32 c15 18 30 43 34 57 9 39 26 80 33
80 10 0 130 117 209 204 95 104 111 136 116 231 3 42 10 83 17 91 8 10 8 14 0
14 -28 0 6 197 54 310 31 71 44 150 27 150 -6 0 -16 -17 -21 -37z"/>
<path d="M1483 1776 c-13 -6 -23 -14 -23 -17 0 -9 32 -21 38 -14 3 3 0 5 -7 5
-7 0 -3 9 10 20 26 21 17 24 -18 6z"/>
<path d="M1591 1766 c-7 -8 -20 -17 -29 -19 -9 -2 -1 -2 18 0 41 6 47 10 33
24 -7 7 -14 5 -22 -5z"/>
<path d="M1352 1754 c-9 -8 -27 -14 -39 -14 -25 0 -39 -15 -23 -25 6 -4 31 3
55 14 25 12 58 21 75 21 16 0 30 4 30 10 0 14 -77 9 -98 -6z"/>
<path d="M1426 1629 c3 -5 26 -9 51 -9 26 0 44 3 40 6 -9 10 -97 13 -91 3z"/>
<path d="M908 1170 c5 -36 18 -39 24 -6 4 21 -7 36 -26 36 -1 0 -1 -13 2 -30z"/>
<path d="M975 1154 c-4 -22 -2 -41 4 -47 8 -8 11 3 11 36 0 56 -5 60 -15 11z"/>
<path d="M2052 1170 c-17 -27 -15 -38 2 -15 14 19 15 19 50 2 20 -9 44 -17 54
-17 9 0 -7 11 -36 25 -30 14 -55 25 -56 25 0 0 -7 -9 -14 -20z"/>
<path d="M1947 1140 c4 -16 3 -21 -5 -16 -7 4 -12 1 -12 -8 0 -8 4 -18 10 -21
14 -8 25 44 12 57 -8 8 -9 4 -5 -12z"/>
<path d="M1991 1144 c-1 -27 56 -57 97 -52 29 5 25 7 -45 28 -23 7 -44 20 -46
29 -3 11 -5 9 -6 -5z"/>
<path d="M944 1140 c-5 -5 -27 -14 -49 -19 l-40 -9 48 -1 c34 -1 49 3 54 14 7
20 0 28 -13 15z"/>
<path d="M1978 1042 c-9 -37 -19 -76 -22 -87 -4 -11 0 -7 7 8 8 16 20 33 28
38 8 4 14 14 14 21 0 7 9 12 18 11 12 -1 17 4 13 14 -3 8 -6 17 -6 19 0 2 -6
4 -14 4 -8 0 -16 9 -18 20 -2 11 -10 -10 -20 -48z"/>
<path d="M2226 1098 c3 -4 12 -8 20 -8 8 0 14 -4 14 -10 0 -5 8 -10 18 -10 10
0 23 -5 28 -10 8 -8 15 -6 23 4 8 10 9 16 1 21 -5 3 -10 4 -10 0 0 -3 -10 0
-22 6 -27 14 -80 20 -72 7z"/>
<path d="M818 1083 c-25 -4 -28 -8 -28 -44 0 -25 4 -38 10 -34 6 4 8 11 5 16
-4 5 -1 9 4 9 6 0 11 -5 11 -12 0 -6 3 -8 6 -5 4 4 1 14 -7 23 -11 14 -11 18
6 30 10 8 23 14 27 14 13 0 42 -31 57 -62 8 -16 18 -28 22 -28 14 0 2 61 -15
78 -11 9 -16 11 -12 5 4 -7 2 -13 -3 -13 -6 0 -11 7 -11 15 0 15 -15 17 -72 8z"/>
<path d="M969 1083 c-7 -46 -5 -73 5 -73 7 0 10 14 8 40 -4 36 -10 52 -13 33z"/>
<path d="M1931 1012 c-7 -29 -11 -55 -8 -58 9 -9 28 54 25 82 -2 24 -5 21 -17
-24z"/>
<path d="M2131 1044 c6 -7 16 -11 24 -8 20 8 29 -14 14 -34 -7 -9 -9 -14 -5
-10 5 5 15 0 22 -11 9 -12 23 -17 40 -15 33 3 42 13 24 24 -9 6 -16 6 -18 0
-10 -28 -48 4 -46 38 1 12 -4 23 -10 23 -54 6 -56 6 -45 -7z"/>
<path d="M1017 1043 c-11 -10 -8 -63 3 -63 5 0 7 6 4 14 -3 8 -1 17 5 21 6 3
11 13 11 21 0 15 -12 19 -23 7z"/>
<path d="M1883 1039 c-11 -14 -43 -75 -43 -82 0 -2 7 -4 15 -4 8 0 12 4 9 9
-3 4 0 8 5 8 6 0 11 8 11 18 0 10 5 23 11 29 6 6 9 17 7 23 -3 9 -7 9 -15 -1z"/>
<path d="M564 1030 c-5 -5 -9 -6 -36 -9 -18 -2 33 -41 52 -40 13 0 13 1 0 7
-9 4 -15 12 -15 19 0 14 15 30 15 16 0 -6 9 -9 20 -6 29 8 25 23 -6 21 -14 -2
-27 -5 -30 -8z"/>
<path d="M715 1031 c-3 -5 -31 -15 -62 -21 -35 -8 -51 -15 -43 -20 7 -4 10
-12 6 -18 -3 -5 14 -10 44 -11 50 -1 57 6 51 43 -1 4 6 14 16 22 10 7 13 14 6
14 -6 0 -14 -4 -18 -9z"/>
<path d="M1068 1025 c-2 -11 1 -36 7 -55 11 -32 13 -33 19 -13 4 12 1 36 -7
55 -11 28 -14 30 -19 13z"/>
<path d="M2420 1032 c0 -6 -10 -16 -21 -23 -15 -8 -19 -8 -15 0 5 7 -6 11 -32
11 -46 0 -55 -6 -41 -31 12 -24 31 -25 22 -2 -7 17 -6 17 20 0 36 -23 55 -22
59 6 2 14 11 23 26 25 12 2 22 0 22 -5 0 -5 10 -9 22 -10 11 -1 24 -7 28 -13
4 -6 39 -13 77 -15 39 -2 86 -10 106 -19 29 -12 35 -12 31 -1 -8 20 -30 26
-122 35 -87 8 -106 15 -82 30 12 8 11 10 -5 10 -11 0 -37 3 -57 6 -25 4 -38 3
-38 -4z"/>
<path d="M2112 1014 c-7 -7 -19 -11 -27 -8 -8 4 -15 1 -15 -6 0 -6 -4 -8 -10
-5 -5 3 -10 1 -10 -4 0 -14 17 -14 61 2 26 9 33 15 25 23 -8 8 -15 7 -24 -2z"/>
<path d="M497 974 c-3 -3 -30 -7 -59 -8 -29 -1 -65 -6 -80 -10 -40 -12 -35
-29 5 -20 17 4 61 12 97 18 36 7 60 15 54 19 -6 3 -14 4 -17 1z"/>
<path d="M1775 941 c-3 -11 -19 -36 -35 -56 -17 -21 -30 -48 -30 -61 0 -12 -4
-26 -10 -29 -5 -3 -10 -16 -10 -28 0 -13 -8 -33 -17 -47 -16 -22 -16 -23 0
-17 12 4 17 1 17 -10 0 -32 12 -4 25 62 16 73 38 116 58 112 6 -1 11 4 9 12
-2 7 5 22 14 32 16 18 13 49 -5 49 -5 0 -12 -9 -16 -19z"/>
<path d="M900 930 c0 -5 8 -14 18 -19 16 -10 15 -10 -3 -11 -19 -1 -19 -2 4
-20 28 -24 67 -26 75 -5 3 8 13 15 23 15 14 0 15 -2 4 -9 -20 -13 5 -24 36
-16 l26 6 -29 30 -29 30 -20 -25 c-21 -26 -63 -30 -57 -5 2 7 -5 19 -14 26
-21 15 -34 17 -34 3z"/>
<path d="M730 919 c0 -6 7 -9 15 -5 8 3 21 -1 28 -9 11 -10 17 -11 26 -2 14
14 14 27 0 27 -5 0 -7 -4 -4 -10 3 -5 2 -10 -4 -10 -5 0 -13 5 -16 10 -8 14
-45 13 -45 -1z"/>
<path d="M1163 918 c-5 -7 -15 -28 -23 -46 -14 -36 0 -65 26 -55 11 4 12 9 5
16 -6 6 -11 18 -11 26 0 10 6 7 17 -9 10 -14 18 -27 18 -30 0 -3 16 -20 34
-38 29 -28 33 -38 28 -68 -8 -46 0 -63 24 -57 19 5 19 7 3 24 -16 18 -15 19 7
27 13 5 29 8 34 5 6 -2 11 6 11 17 0 13 -5 19 -13 16 -7 -3 -21 7 -30 22 -10
15 -28 35 -41 45 -19 16 -55 70 -52 79 1 2 -2 11 -5 21 -8 20 -19 22 -32 5z"/>
<path d="M1936 921 c-18 -7 -18 -8 -2 -14 10 -4 27 -2 39 4 22 10 22 10 0 -10
-27 -23 -30 -41 -6 -41 9 0 14 3 10 6 -3 4 0 13 8 21 34 34 4 55 -49 34z"/>
<path d="M2010 919 c0 -4 6 -14 13 -21 8 -7 12 -20 9 -30 -3 -14 2 -18 19 -18
21 1 22 2 6 11 -12 7 -15 15 -8 27 7 13 4 20 -15 29 -13 6 -24 7 -24 2z"/>
<path d="M1832 892 c-29 -40 -25 -61 7 -35 15 13 22 27 19 43 -3 25 -3 25 -26
-8z"/>
<path d="M2099 913 c-12 -3 -15 -11 -11 -25 4 -16 2 -19 -9 -13 -12 8 -12 6 0
-8 15 -18 51 -23 51 -7 0 6 -7 10 -15 10 -8 0 -15 7 -15 16 0 8 4 13 9 10 5
-3 11 1 15 9 5 15 3 16 -25 8z"/>
<path d="M2530 910 c0 -5 4 -10 9 -10 5 0 12 -7 15 -16 4 -11 2 -15 -8 -11
-10 4 -14 0 -13 -14 1 -10 8 -19 17 -19 17 0 51 20 34 20 -6 0 -14 14 -17 30
-6 27 -37 44 -37 20z"/>
<path d="M446 901 c-3 -5 -16 -7 -29 -4 -12 3 -19 2 -15 -2 4 -4 3 -16 -3 -26
-6 -13 -6 -19 1 -19 5 0 10 6 10 14 0 8 5 18 11 22 8 4 9 0 4 -15 -5 -18 -2
-21 19 -21 13 0 31 -3 39 -6 10 -4 16 4 19 26 3 22 1 30 -8 26 -8 -3 -16 -1
-19 4 -8 13 -22 13 -29 1z m39 -20 c3 -5 1 -13 -5 -16 -15 -9 -43 3 -35 15 8
13 32 13 40 1z"/>
<path d="M2403 893 c-4 -10 -1 -19 6 -21 8 -3 6 -8 -6 -18 -23 -17 -50 -18
-55 -2 -3 9 -9 8 -21 -4 -13 -13 -14 -17 -3 -21 8 -3 22 -4 33 -2 72 15 73 15
73 40 0 14 -5 25 -11 25 -5 0 -7 5 -4 10 3 6 4 10 0 10 -3 0 -9 -8 -12 -17z"/>
<path d="M2195 885 c11 -9 19 -21 18 -26 -2 -5 3 -9 10 -9 9 0 9 -2 -1 -9 -11
-7 -11 -9 1 -14 8 -3 23 1 34 10 16 13 16 14 1 9 -13 -4 -20 2 -24 19 -3 14
-10 25 -14 25 -5 0 -17 3 -27 6 -16 5 -16 4 2 -11z"/>
<path d="M2331 891 c-20 -13 5 -24 27 -12 11 6 22 7 26 4 3 -3 6 -1 6 5 0 14
-39 16 -59 3z"/>
<path d="M2730 884 c0 -13 6 -15 32 -10 31 6 31 6 13 -14 -14 -15 -20 -17 -26
-8 -4 7 -11 9 -14 6 -11 -11 5 -28 26 -28 13 0 18 4 13 12 -5 8 -2 9 9 5 13
-5 17 -1 18 16 1 17 3 16 9 -8 l8 -30 1 27 c1 31 -7 38 -54 44 -28 3 -35 1
-35 -12z"/>
<path d="M273 883 c4 -3 2 -12 -4 -19 -8 -10 -16 -10 -36 -1 -21 9 -27 8 -37
-4 -6 -9 -18 -19 -26 -22 -8 -4 12 -4 45 0 33 3 63 11 67 17 12 17 9 36 -4 36
-6 0 -8 -3 -5 -7z"/>
<path d="M605 873 c-13 -36 -5 -48 30 -48 19 0 35 2 35 5 -1 14 -17 28 -30 27
-8 -1 -17 2 -20 7 -3 5 5 10 17 11 35 3 39 14 5 13 -17 -1 -33 -7 -37 -15z"/>
<path d="M720 870 c0 -9 43 -19 72 -18 9 1 15 5 13 9 -3 4 -15 5 -27 1 -13 -3
-19 -1 -15 5 4 6 -4 11 -18 11 -14 0 -25 -4 -25 -8z"/>
<path d="M85 820 c-4 -6 -21 -17 -38 -24 -18 -8 -26 -15 -19 -15 6 -1 12 -5
12 -11 0 -5 -7 -7 -15 -4 -9 4 -15 0 -15 -10 0 -19 5 -20 31 -5 11 5 17 14 14
19 -3 5 -1 11 5 15 5 3 10 1 10 -6 0 -18 27 7 33 31 5 21 -7 27 -18 10z"/>
<path d="M2895 800 c6 -18 4 -19 -22 -10 l-28 11 30 -25 c17 -14 39 -25 51
-26 11 0 25 -5 32 -12 9 -9 12 -7 12 9 0 25 -25 48 -41 38 -8 -6 -7 -10 2 -16
11 -7 10 -9 -3 -9 -13 0 -18 8 -18 30 0 17 -5 30 -11 30 -6 0 -8 -9 -4 -20z"/>
<path d="M1623 803 c-18 -7 -16 -40 3 -47 22 -9 24 -8 18 9 -4 8 -1 15 5 15 6
0 11 4 11 9 0 11 -21 19 -37 14z"/>
<path d="M1000 791 c0 -5 11 -11 25 -13 14 -3 25 -1 25 3 0 13 68 3 86 -12 11
-9 12 -14 3 -20 -8 -4 -4 -9 10 -14 16 -5 21 -12 16 -23 -5 -13 -3 -14 6 -5 8
9 6 21 -12 52 l-23 41 -68 0 c-37 0 -68 -4 -68 -9z"/>
<path d="M1790 748 c-17 -20 -30 -39 -30 -42 0 -11 45 1 46 12 1 7 2 16 3 22
0 5 10 14 22 20 17 9 23 8 35 -7 10 -13 14 -14 12 -3 -2 10 4 14 20 13 12 -2
22 1 22 6 0 5 -23 11 -50 13 -48 3 -52 1 -80 -34z"/>
<path d="M830 771 c0 -4 -10 -6 -22 -4 -16 3 -27 -3 -36 -16 -13 -23 -1 -29
17 -8 6 8 23 12 41 9 23 -3 30 0 30 12 0 9 -7 16 -15 16 -8 0 -15 -4 -15 -9z"/>
<path d="M1977 756 c4 -19 8 -22 17 -13 18 16 15 37 -4 37 -13 0 -16 -6 -13
-24z"/>
<path d="M176 754 c-51 -18 -53 -21 -14 -20 18 1 38 8 44 16 10 12 14 12 28 1
17 -14 46 -9 46 9 0 14 -58 11 -104 -6z"/>
<path d="M390 756 c0 -23 64 -43 89 -27 19 12 5 31 -22 30 -17 -1 -18 -2 -4
-6 28 -7 20 -22 -10 -18 -16 1 -27 7 -26 13 1 6 -4 13 -12 16 -9 3 -15 0 -15
-8z"/>
<path d="M697 755 c-7 -18 9 -30 17 -13 5 10 7 10 12 1 3 -7 10 -13 15 -13 6
0 5 8 -1 20 -13 23 -35 26 -43 5z"/>
<path d="M2035 753 c11 -7 22 -13 26 -13 3 0 5 -11 4 -25 -2 -17 2 -25 12 -25
10 0 12 6 7 23 -4 12 -7 30 -6 39 0 12 -7 16 -30 16 -28 -1 -29 -2 -13 -15z"/>
<path d="M942 745 c-10 -12 -9 -15 10 -19 36 -7 98 -3 98 6 0 5 -19 6 -42 3
-27 -3 -38 -2 -30 3 11 7 10 10 -3 16 -20 7 -17 8 -33 -9z"/>
<path d="M2230 744 c-16 -9 -28 -10 -34 -4 -16 16 -26 12 -26 -9 0 -10 7 -21
14 -24 9 -4 13 -1 10 6 -3 8 6 13 21 15 19 1 28 -4 34 -21 5 -14 4 -25 -3 -29
-6 -5 -2 -8 12 -8 23 0 30 14 11 26 -6 3 -8 17 -5 29 8 30 -2 35 -34 19z"/>
<path d="M2423 753 c-7 -2 -13 -9 -13 -14 0 -6 5 -7 12 -3 8 5 9 2 5 -9 -4
-11 -1 -17 8 -17 9 0 15 10 15 25 0 25 -4 28 -27 18z"/>
<path d="M2553 714 c3 -27 1 -44 -7 -47 -6 -2 5 -4 24 -5 32 -1 33 1 16 13
-11 8 -16 21 -13 30 4 8 1 15 -5 15 -18 0 3 17 27 22 14 3 10 6 -13 9 l-33 6
4 -43z"/>
<path d="M2775 752 c-29 -10 -31 -34 -3 -30 15 2 24 -3 26 -14 2 -12 -2 -15
-17 -11 -17 4 -21 1 -21 -16 0 -13 4 -19 10 -16 6 4 8 11 5 16 -4 5 -2 9 3 9
14 0 35 -28 28 -38 -3 -5 11 -17 31 -26 26 -13 33 -13 25 -3 -8 9 -8 17 -2 25
7 9 7 9 -2 2 -31 -26 -50 2 -50 73 0 20 -3 37 -6 36 -4 -1 -16 -4 -27 -7z"/>
<path d="M593 732 c-1 -15 4 -19 20 -16 22 4 22 4 0 -7 -13 -7 -23 -17 -23
-23 0 -6 5 -5 12 2 7 7 18 12 26 12 11 0 11 -2 0 -13 -7 -8 -20 -16 -28 -20
-10 -4 -8 -6 6 -6 28 -1 41 17 39 54 -1 24 -7 31 -26 33 -18 2 -25 -2 -26 -16z"/>
<path d="M2624 725 c5 -20 3 -25 -11 -25 -14 0 -15 -2 -4 -9 7 -5 10 -14 7
-20 -4 -6 -5 -11 -2 -11 7 0 36 61 36 77 0 7 -7 13 -16 13 -12 0 -15 -6 -10
-25z"/>
<path d="M255 724 c-16 -17 -16 -18 1 -24 37 -14 90 -20 74 -10 -8 5 -11 10
-5 10 5 0 3 6 -3 12 -10 10 -14 10 -21 0 -4 -7 -15 -10 -25 -6 -14 5 -15 9 -5
15 8 4 11 11 7 14 -3 3 -13 -2 -23 -11z"/>
<path d="M1835 731 c-24 -7 -31 -31 -9 -31 8 0 12 5 9 10 -9 14 8 13 23 -2 9
-9 15 -9 23 -1 15 15 -18 32 -46 24z"/>
<path d="M387 723 c-4 -3 -7 -14 -7 -24 0 -14 7 -18 34 -17 24 1 33 5 29 15
-4 10 -9 11 -19 2 -17 -14 -35 -3 -27 16 5 16 1 20 -10 8z"/>
<path d="M183 700 c2 -14 7 -24 10 -22 4 1 14 5 22 8 8 4 15 11 15 16 0 6 -8
7 -17 4 -9 -4 -20 -1 -25 6 -5 8 -7 4 -5 -12z"/>
<path d="M693 705 c-10 -11 -9 -15 8 -20 24 -8 45 7 35 24 -10 15 -28 13 -43
-4z"/>
<path d="M1990 706 c0 -8 11 -13 25 -13 14 0 25 5 25 11 0 6 -11 13 -25 14
-15 1 -25 -3 -25 -12z"/>
<path d="M2987 658 c7 -83 15 -89 12 -10 -1 35 -6 65 -10 67 -4 3 -5 -23 -2
-57z"/>
<path d="M2367 703 c-4 -3 -7 -17 -7 -29 0 -21 3 -22 26 -14 14 6 36 10 50 10
13 0 24 4 24 8 0 5 -19 8 -42 8 -29 -1 -42 3 -40 12 2 13 -1 15 -11 5z"/>
<path d="M2900 674 c0 -10 28 -34 39 -34 18 0 12 19 -8 30 -22 11 -31 13 -31
4z"/>
<path d="M1170 632 c1 -13 27 -42 39 -42 6 0 11 -5 11 -11 0 -5 4 -7 10 -4 6
3 7 -1 4 -10 -4 -9 -13 -14 -20 -11 -8 3 -14 2 -14 -3 0 -10 37 -21 44 -13 3
3 6 23 6 44 0 31 3 38 20 38 11 0 20 -7 20 -15 0 -9 6 -12 16 -8 14 5 14 7 0
21 -15 16 -136 29 -136 14z"/>
<path d="M940 624 c0 -14 31 -34 42 -27 13 8 18 9 52 11 11 1 16 5 13 8 -8 8
-107 15 -107 8z"/>
<path d="M1330 624 c0 -11 26 -30 36 -27 7 2 21 -12 33 -30 25 -41 61 -56 61
-25 0 10 -4 17 -9 13 -5 -3 -19 7 -31 22 -23 30 -90 65 -90 47z"/>
<path d="M1448 623 c-22 -5 -24 -23 -3 -23 8 0 15 -8 15 -17 1 -14 4 -12 15 7
23 40 19 45 -27 33z"/>
<path d="M232 589 c-19 -10 -29 -20 -22 -24 5 -3 8 -11 5 -16 -4 -5 3 -9 15
-9 17 0 20 4 15 19 -4 13 0 23 12 30 32 17 9 18 -25 0z"/>
<path d="M1546 599 c3 -6 0 -16 -7 -21 -11 -8 -10 -8 4 -4 11 3 30 9 43 12 32
8 21 24 -17 24 -20 0 -28 -4 -23 -11z"/>
<path d="M1855 602 c-2 -2 3 -15 11 -27 12 -18 12 -24 2 -28 -10 -4 -10 -6 1
-6 11 -1 11 -4 1 -16 -11 -13 -8 -15 19 -15 19 0 30 4 26 10 -4 6 -11 8 -16 5
-5 -4 -9 -1 -9 4 0 19 -2 26 -11 44 -7 13 -6 17 6 17 10 0 13 -5 9 -12 -4 -7
-3 -8 4 -4 17 10 4 32 -19 32 -11 0 -22 -2 -24 -4z"/>
<path d="M2960 602 c0 -5 -9 -18 -20 -30 -12 -12 -16 -23 -10 -27 6 -3 10 -1
10 4 0 6 5 11 10 11 7 0 7 -7 0 -21 -7 -11 -9 -27 -6 -35 8 -21 36 -17 36 6 0
11 -4 20 -9 20 -5 0 -8 11 -8 25 0 14 3 28 8 31 12 7 11 24 -1 24 -5 0 -10 -4
-10 -8z"/>
<path d="M290 592 c0 -6 17 -14 38 -18 20 -4 42 -11 49 -16 7 -5 14 -5 18 2 7
11 -2 15 -45 23 -14 2 -33 8 -42 12 -11 4 -18 3 -18 -3z"/>
<path d="M801 586 c-8 -9 -26 -13 -54 -10 l-42 4 44 -11 c36 -9 46 -8 59 5 9
9 13 18 10 21 -3 3 -10 -1 -17 -9z"/>
<path d="M834 575 c4 -14 2 -25 -3 -25 -6 0 -8 -7 -4 -16 4 -10 1 -15 -8 -14
-39 6 -69 -1 -69 -15 0 -12 4 -13 18 -6 10 5 24 9 32 9 42 -3 48 3 52 42 2 27
-1 41 -10 45 -11 4 -13 -1 -8 -20z"/>
<path d="M1650 587 c0 -21 12 -28 27 -16 10 9 13 7 13 -6 0 -13 -6 -16 -25
-11 l-25 6 -2 -82 c0 -46 0 -90 0 -98 1 -8 3 -31 3 -51 1 -30 5 -36 19 -32 18
5 22 44 7 59 -10 10 4 34 17 27 6 -3 7 -2 3 3 -5 5 -14 9 -20 9 -13 1 -14 18
-2 54 5 16 4 21 -4 17 -7 -4 -11 1 -11 12 0 14 9 21 30 25 28 6 29 9 26 46 -2
30 1 41 13 44 9 3 -3 5 -26 6 -30 1 -43 -3 -43 -12z"/>
<path d="M1823 573 c-20 -42 -16 -63 10 -63 21 1 22 1 3 15 -18 14 -15 20 7
16 5 -1 5 4 0 11 -4 7 -6 21 -5 31 4 24 -1 21 -15 -10z"/>
<path d="M2006 591 c-4 -5 3 -15 15 -21 15 -8 19 -9 15 -1 -11 17 25 13 46 -6
17 -15 18 -15 18 5 0 16 -6 22 -22 22 -13 0 -33 3 -44 6 -12 3 -25 1 -28 -5z"/>
<path d="M423 572 c10 -2 16 -10 14 -17 -4 -10 0 -10 19 -1 34 16 30 24 -13
23 -21 0 -30 -2 -20 -5z"/>
<path d="M1286 564 c-3 -9 -6 -17 -6 -18 0 -1 23 -3 50 -3 28 0 50 4 50 9 0 5
-4 6 -10 3 -5 -3 -10 2 -10 12 0 13 -3 15 -8 5 -5 -7 -16 -10 -25 -6 -10 3
-17 1 -17 -5 0 -6 -4 -11 -10 -11 -5 0 -7 7 -4 15 4 8 4 15 1 15 -3 0 -8 -7
-11 -16z"/>
<path d="M2197 574 c-7 -8 5 -54 16 -61 6 -4 8 2 5 15 -4 14 -1 25 9 31 13 7
12 9 -5 13 -12 3 -23 4 -25 2z"/>
<path d="M2260 566 c0 -9 5 -16 10 -16 6 0 10 -12 10 -28 0 -26 -2 -27 -47
-24 -32 2 -43 0 -34 -6 7 -5 21 -7 31 -5 9 3 34 0 53 -5 26 -7 37 -7 40 1 3 9
9 8 21 -2 9 -8 18 -12 21 -9 2 2 -10 12 -27 22 -17 11 -28 14 -24 7 4 -6 1
-11 -8 -11 -11 0 -16 10 -17 30 -2 49 -3 53 -16 58 -7 2 -13 -3 -13 -12z"/>
<path d="M2781 571 c-8 -5 -10 -14 -5 -22 4 -7 7 -27 7 -44 -1 -16 1 -22 4
-12 2 9 14 17 26 17 20 1 20 2 5 13 -9 7 -18 23 -20 35 -2 15 -7 19 -17 13z"/>
<path d="M154 560 c-34 -13 -41 -32 -8 -20 15 6 34 8 42 5 12 -4 13 -3 2 10
-7 8 -13 15 -14 14 0 0 -11 -4 -22 -9z"/>
<path d="M534 558 c-5 -8 0 -9 16 -5 16 4 27 1 35 -10 11 -14 13 -14 18 6 4
18 1 21 -28 21 -19 0 -37 -5 -41 -12z"/>
<path d="M2570 557 c0 -7 9 -18 20 -25 17 -10 23 -10 36 2 8 8 21 13 29 10 8
-4 15 -2 15 4 0 5 -7 12 -15 16 -8 3 -15 1 -15 -4 0 -5 -7 -7 -15 -4 -9 4 -15
0 -15 -7 -1 -9 -4 -8 -11 4 -12 20 -29 23 -29 4z"/>
<path d="M647 540 c-10 -37 -9 -40 14 -40 16 0 19 3 11 13 -5 6 -12 21 -14 32
-3 18 -5 17 -11 -5z"/>
<path d="M1524 545 c3 -9 0 -15 -9 -15 -8 0 -12 -6 -9 -14 3 -8 1 -17 -5 -21
-6 -3 -11 -29 -11 -57 0 -28 3 -49 6 -45 3 3 17 2 30 -3 17 -7 24 -6 24 2 0 6
3 8 6 5 4 -4 2 -12 -4 -19 -7 -9 -7 -18 2 -30 11 -15 13 -12 14 22 2 35 -1 40
-21 40 -48 0 -65 56 -25 84 12 9 19 16 14 16 -5 0 -3 7 4 15 9 11 9 15 1 15
-7 0 -9 5 -6 10 3 6 1 10 -5 10 -7 0 -10 -7 -6 -15z"/>
<path d="M940 532 c0 -7 5 -10 11 -7 6 4 33 7 59 8 27 0 47 4 44 9 -9 14 -114
5 -114 -10z"/>
<path d="M227 511 l-28 -28 25 2 c21 3 24 -1 23 -33 -1 -43 7 -95 17 -110 11
-18 -11 -23 -39 -8 -23 12 -24 15 -8 19 15 4 14 5 -4 6 -12 0 -25 -3 -28 -9
-3 -5 -1 -10 5 -10 6 0 9 -4 6 -8 -3 -5 5 -8 17 -8 15 1 22 -5 22 -19 1 -11
-4 -23 -10 -27 -5 -4 2 -8 17 -8 31 0 47 18 27 31 -11 7 -11 9 -1 9 11 0 12
17 6 83 -4 45 -7 97 -7 115 0 39 -4 39 -40 3z"/>
<path d="M2446 532 c14 -10 26 -42 14 -42 -5 0 -11 8 -13 18 -4 16 -5 16 -6 0
0 -10 8 -22 19 -28 18 -10 20 -8 18 25 -2 28 -7 35 -23 35 -12 0 -16 -3 -9 -8z"/>
<path d="M2090 519 c0 -6 -9 -8 -22 -4 -16 5 -20 4 -13 -3 18 -18 48 -18 50 1
2 9 -1 17 -6 17 -5 0 -9 -5 -9 -11z"/>
<path d="M2659 525 c-7 -32 -3 -65 8 -65 7 0 13 8 12 18 -1 22 -17 60 -20 47z"/>
<path d="M605 510 c-4 -6 -10 -8 -15 -5 -5 3 -12 0 -15 -6 -4 -6 -18 -8 -30
-5 -13 3 -34 2 -47 -3 -20 -9 -18 -10 18 -10 46 -1 104 16 104 30 0 12 -7 11
-15 -1z"/>
<path d="M1229 519 c0 -2 -2 -13 -4 -24 -2 -11 -5 -37 -7 -57 -1 -20 -6 -34
-11 -31 -4 3 -8 -1 -6 -8 3 -25 -1 -40 -9 -35 -5 3 -9 -1 -9 -9 0 -8 4 -12 8
-9 4 2 9 -1 11 -8 2 -6 10 -8 17 -4 9 6 9 11 0 22 -6 8 -7 14 -2 14 11 0 27
139 18 148 -3 3 -5 3 -6 1z"/>
<path d="M445 500 c-3 -5 -12 -7 -20 -3 -8 3 -15 0 -15 -6 0 -6 14 -11 30 -11
20 0 30 5 30 15 0 17 -16 20 -25 5z"/>
<path d="M2861 493 c0 -10 -4 -36 -9 -58 -5 -22 -12 -53 -16 -70 l-7 -30 15
31 c7 18 18 34 24 38 12 7 13 106 1 106 -4 0 -8 -8 -8 -17z"/>
<path d="M88 488 c-20 -17 -28 -42 -19 -57 6 -9 14 -9 34 0 27 12 32 20 20 32
-3 4 -12 -1 -19 -11 -7 -9 -16 -13 -20 -9 -5 4 -2 12 6 17 8 6 11 10 6 10 -5
0 -3 7 4 15 15 18 9 19 -12 3z"/>
<path d="M2800 465 c0 -46 14 -46 17 0 1 19 -3 35 -8 35 -5 0 -9 -16 -9 -35z"/>
<path d="M2970 421 c-6 -24 -9 -55 -5 -68 3 -14 2 -22 -3 -20 -4 3 -8 -3 -9
-13 -2 -21 32 -16 41 7 4 9 2 11 -6 7 -7 -5 -8 -3 -3 7 13 20 16 74 6 100 -8
22 -9 21 -21 -20z"/>
<path d="M31 382 c17 -34 28 -68 26 -75 -3 -7 -6 -5 -6 6 -1 9 -6 17 -12 17
-18 0 -4 -24 19 -35 12 -5 22 -15 22 -21 0 -16 38 -62 60 -74 15 -8 17 -6 13
10 -3 11 -12 20 -20 20 -8 0 -12 4 -9 9 3 5 -1 11 -9 14 -9 4 -13 16 -10 38 3
26 -3 38 -38 74 -23 23 -48 50 -54 61 -7 10 1 -9 18 -44z"/>
<path d="M981 431 c-19 -3 -36 -11 -38 -18 -5 -13 44 -30 54 -19 4 3 -3 6 -15
6 -12 0 -22 5 -22 11 0 7 15 10 40 7 23 -2 39 1 37 6 -4 13 -15 14 -56 7z"/>
<path d="M1130 431 c-32 -4 -33 -4 -10 -11 14 -4 24 -12 23 -18 -2 -7 2 -12 8
-12 6 0 8 7 5 16 -5 13 -2 15 14 11 11 -3 22 -2 25 3 7 11 -23 16 -65 11z"/>
<path d="M1334 382 l-2 -47 42 -2 c22 0 33 1 23 4 -9 2 -14 9 -11 14 3 6 -2 9
-12 7 -15 -2 -19 3 -17 26 1 16 8 33 15 38 9 5 5 8 -12 8 -23 0 -25 -4 -26
-48z"/>
<path d="M1700 400 c0 -3 23 -6 50 -6 28 0 50 4 50 8 0 5 -22 8 -50 7 -27 -1
-50 -5 -50 -9z"/>
<path d="M1820 399 c0 -6 9 -7 22 -3 21 6 22 6 8 -12 -14 -18 -14 -18 2 -5 10
7 25 11 33 7 8 -3 15 -1 15 4 0 5 7 6 17 3 9 -4 14 -2 10 3 -8 13 -107 15
-107 3z"/>
<path d="M587 394 c-4 -4 -7 -14 -7 -23 1 -14 2 -14 11 1 9 16 11 16 29 1 10
-9 17 -20 14 -25 -3 -4 -1 -8 4 -8 6 0 13 7 16 16 3 8 2 12 -4 9 -6 -3 -10 -1
-10 4 0 6 20 11 47 11 25 0 44 2 42 4 -8 8 -135 17 -142 10z"/>
<path d="M740 380 c0 -21 33 -29 45 -10 3 6 -4 10 -17 10 -18 0 -20 2 -8 10
13 8 12 10 -2 10 -11 0 -18 -8 -18 -20z"/>
<path d="M2218 383 c6 -2 12 -11 12 -19 0 -16 2 -16 24 -8 30 11 18 34 -16 33
-18 0 -27 -3 -20 -6z"/>
<path d="M2413 370 c1 -20 17 -29 17 -10 0 6 10 2 22 -10 12 -11 27 -20 32
-20 6 0 5 4 -2 9 -11 6 -10 10 4 15 24 9 7 22 -38 30 -33 6 -37 4 -35 -14z"/>
<path d="M390 363 c0 -6 5 -15 10 -18 6 -3 10 -1 10 5 0 6 5 8 11 4 6 -3 9
-15 6 -25 -4 -14 0 -19 16 -19 13 0 17 3 11 8 -15 10 -30 57 -15 48 6 -4 11
-2 11 4 0 5 -13 9 -30 8 -16 -1 -30 -8 -30 -15z"/>
<path d="M2284 368 c-4 -7 -3 -8 4 -4 7 4 12 3 12 -3 0 -5 -6 -12 -12 -15 -7
-3 -4 -5 7 -3 23 3 34 37 11 37 -8 0 -18 -5 -22 -12z"/>
<path d="M2595 338 c4 -18 7 -43 6 -56 -1 -15 4 -22 12 -19 14 4 17 27 4 44
-5 7 -6 21 -3 31 5 13 1 22 -10 26 -14 5 -15 2 -9 -26z"/>
<path d="M1702 346 c13 -10 15 -15 6 -24 -9 -9 -8 -12 5 -12 12 0 16 7 15 25
-2 18 -8 25 -23 25 -18 -1 -19 -2 -3 -14z"/>
<path d="M1847 343 c4 -11 2 -14 -5 -9 -7 4 -12 1 -12 -8 0 -13 11 -16 53 -15
51 1 53 3 49 25 -2 13 -8 24 -13 24 -5 0 -6 -7 -3 -15 5 -11 -1 -15 -21 -15
-18 0 -25 4 -22 13 3 7 -3 13 -14 14 -12 1 -16 -3 -12 -14z"/>
<path d="M2031 338 c-1 -18 4 -28 13 -28 8 0 14 9 13 19 0 11 -4 18 -8 15 -4
-2 -10 2 -12 8 -3 7 -6 1 -6 -14z"/>
<path d="M2650 349 c0 -5 5 -7 12 -3 7 4 8 3 4 -4 -4 -7 -14 -12 -22 -12 -8 0
-14 -4 -14 -10 0 -5 7 -6 17 -3 11 5 14 3 8 -6 -6 -10 -3 -11 14 -2 27 15 28
51 1 51 -11 0 -20 -5 -20 -11z"/>
<path d="M547 335 c-4 -11 -10 -26 -13 -34 -5 -9 -3 -11 6 -6 7 4 42 7 77 6
42 -1 63 1 59 8 -4 6 -14 7 -22 4 -9 -3 -20 0 -25 8 -5 8 -9 9 -9 4 0 -21 -47
-15 -57 7 -9 21 -10 21 -16 3z"/>
<path d="M784 339 c-3 -6 -15 -9 -25 -6 -14 4 -19 0 -18 -16 0 -12 3 -17 5
-10 3 7 11 10 17 7 7 -2 18 5 25 16 7 11 10 20 8 20 -3 0 -8 -5 -12 -11z"/>
<path d="M819 343 c-1 -5 -1 -12 0 -16 1 -5 -3 -6 -8 -3 -5 4 -12 2 -16 -4 -4
-6 5 -10 19 -10 19 0 26 5 26 20 0 18 -19 29 -21 13z"/>
<path d="M969 346 c-3 -3 -20 -8 -39 -11 -47 -8 -51 -15 -7 -15 20 0 39 5 42
10 4 6 11 8 16 5 5 -4 9 -1 9 4 0 11 -13 15 -21 7z"/>
<path d="M1480 341 c0 -10 55 -9 66 2 4 4 -9 7 -29 7 -20 0 -37 -4 -37 -9z"/>
<path d="M140 315 c0 -14 5 -25 11 -25 5 0 7 -4 4 -10 -3 -5 -1 -10 5 -10 7 0
9 -8 5 -22 -6 -17 -4 -20 4 -12 13 12 5 64 -9 64 -5 0 -6 9 -3 20 3 11 0 20
-6 20 -6 0 -11 -11 -11 -25z"/>
<path d="M2227 320 c3 -11 8 -20 12 -20 3 0 23 -4 43 -9 36 -8 37 -8 36 15 -3
26 -14 32 -21 12 -3 -10 -12 -9 -35 5 -38 22 -41 21 -35 -3z"/>
<path d="M350 306 c0 -18 4 -23 18 -19 25 6 26 43 1 43 -13 0 -19 -7 -19 -24z"/>
<path d="M2078 323 c6 -2 9 -10 5 -16 -3 -7 -3 -9 2 -5 4 4 16 3 26 -3 14 -7
19 -6 19 4 0 8 -10 17 -22 21 -27 7 -48 7 -30 -1z"/>
<path d="M2432 310 c2 -18 11 -26 35 -31 18 -3 30 -2 27 2 -3 5 -1 9 5 9 6 0
8 7 4 16 -3 9 -8 11 -12 6 -9 -15 -46 -19 -46 -5 0 6 -4 15 -8 20 -5 4 -7 -3
-5 -17z"/>
<path d="M2801 311 c-7 -5 -11 -13 -7 -19 3 -6 0 -13 -6 -15 -10 -4 -10 -6 0
-6 9 -1 12 -35 12 -136 0 -74 4 -135 8 -135 5 0 9 16 10 35 1 19 6 44 12 54
13 26 13 34 -2 25 -7 -4 -3 3 9 14 24 24 40 79 26 93 -12 12 -45 0 -37 -12 3
-5 9 -7 14 -4 5 3 3 -8 -3 -25 -6 -16 -14 -30 -17 -30 -3 0 -6 38 -6 85 1 47
1 85 1 85 0 0 -6 -4 -14 -9z"/>
<path d="M2878 290 c-18 -14 -24 -26 -21 -41 8 -28 26 -19 35 18 5 18 16 34
26 36 12 3 13 5 2 6 -8 0 -27 -9 -42 -19z"/>
<path d="M1643 190 c3 -76 7 -96 19 -98 13 -2 15 6 12 48 -2 46 -1 50 17 45
11 -4 19 -2 19 4 0 6 -14 11 -31 11 -29 0 -31 2 -26 28 3 15 1 34 -4 42 -6 10
-8 -18 -6 -80z"/>
<path d="M262 200 c1 -35 6 -61 13 -64 9 -3 10 7 4 37 -4 23 -5 52 -2 65 3 12
1 22 -6 22 -7 0 -10 -22 -9 -60z"/>
<path d="M1007 224 c-3 -3 -20 -6 -39 -7 -22 -1 -34 -7 -36 -19 -2 -10 1 -18
7 -18 6 0 8 7 5 15 -5 12 -1 13 25 4 17 -6 31 -15 31 -20 0 -5 5 -9 10 -9 20
0 9 29 -12 33 -20 4 -19 4 5 6 15 0 27 6 27 11 0 11 -13 13 -23 4z"/>
<path d="M1240 219 c0 -5 10 -9 23 -9 18 0 19 -2 7 -11 -13 -9 -13 -10 0 -6
27 7 23 35 -5 35 -14 0 -25 -4 -25 -9z"/>
<path d="M1329 218 c0 -7 -2 -33 -5 -58 -4 -45 -4 -45 10 -15 7 17 11 35 9 41
-6 17 47 25 54 8 6 -17 23 -8 23 12 0 11 -9 15 -33 13 -18 -2 -38 0 -45 5 -7
4 -12 2 -13 -6z"/>
<path d="M2974 197 c-3 -15 -10 -24 -15 -21 -5 3 -9 0 -9 -5 0 -6 7 -11 15
-11 8 0 15 -6 16 -12 0 -7 5 2 11 21 6 22 6 37 -1 44 -7 7 -12 1 -17 -16z"/>
<path d="M7 193 c7 -2 13 -14 13 -24 0 -11 4 -17 10 -14 5 3 7 0 4 -8 -3 -8
-1 -18 5 -22 17 -10 13 -28 -4 -21 -18 7 -20 -5 -3 -22 15 -15 25 -15 25 1 0
6 3 26 7 43 6 28 3 35 -22 53 -17 12 -34 21 -39 20 -4 0 -2 -3 4 -6z"/>
<path d="M2050 186 c0 -11 10 -14 34 -13 26 2 32 5 24 15 -15 17 -58 15 -58
-2z"/>
<path d="M332 158 c2 -28 28 -49 28 -23 0 9 10 15 24 15 13 0 26 6 29 14 4 11
-6 15 -39 18 -43 3 -44 2 -42 -24z"/>
<path d="M1209 189 c0 -2 -2 -15 -3 -27 -2 -13 -9 -28 -17 -33 -10 -6 -7 -8
11 -5 21 3 24 8 22 32 -4 26 -11 45 -13 33z"/>
<path d="M1483 165 c0 -8 6 -15 14 -15 7 0 13 5 13 10 0 6 15 9 35 7 19 -3 35
-1 35 3 0 4 -22 8 -48 8 -37 1 -49 -2 -49 -13z"/>
<path d="M2440 167 c0 -5 9 -11 20 -14 11 -3 20 -14 20 -24 0 -11 7 -17 18
-16 12 0 17 9 17 30 0 24 -3 28 -22 24 -13 -2 -23 -1 -23 3 0 4 -7 7 -15 7 -8
0 -15 -5 -15 -10z"/>
<path d="M953 151 c3 -13 0 -18 -8 -15 -7 3 -16 1 -20 -5 -4 -7 3 -11 18 -11
19 0 25 5 25 25 0 14 -5 25 -10 25 -6 0 -8 -9 -5 -19z"/>
<path d="M2686 145 c4 -8 1 -15 -5 -15 -6 0 -11 -14 -11 -31 0 -26 -3 -31 -20
-26 -11 3 -20 1 -20 -4 0 -13 68 -11 76 3 5 8 2 9 -9 5 -12 -5 -17 -1 -17 13
0 11 6 20 14 20 9 0 12 8 8 25 -2 14 -8 25 -13 25 -5 0 -6 -7 -3 -15z"/>
<path d="M516 128 c-10 -38 -7 -46 14 -41 21 6 28 23 9 23 -6 0 -9 9 -6 20 3
11 2 20 -3 20 -4 0 -10 -10 -14 -22z"/>
<path d="M599 133 c-1 -10 -1 -22 0 -27 1 -5 -5 -6 -14 -3 -8 4 -15 2 -15 -3
0 -6 9 -10 20 -10 16 0 20 7 20 30 0 32 -9 42 -11 13z"/>
<path d="M2250 145 c0 -14 50 -53 73 -57 21 -4 27 -1 27 13 0 20 -16 26 -22 8
-5 -16 -38 1 -38 20 0 10 -9 17 -20 18 -11 1 -20 0 -20 -2z"/>
<path d="M787 126 c-3 -8 0 -17 8 -19 15 -7 25 1 25 20 0 17 -26 17 -33 -1z"/>
<path d="M2442 110 c-1 -25 3 -30 23 -30 13 0 31 -3 41 -7 12 -4 15 -2 12 8
-3 8 -14 13 -26 11 -16 -2 -23 4 -28 22 -8 35 -21 33 -22 -4z"/>
<path d="M2920 130 c0 -5 -9 -17 -20 -27 -13 -13 -17 -26 -13 -41 3 -12 9 -19
14 -17 4 3 6 12 3 19 -4 10 5 16 28 21 38 9 71 29 62 38 -4 3 -19 0 -35 -8
-36 -19 -38 -19 -32 5 3 11 3 20 -1 20 -3 0 -6 -4 -6 -10z"/>
<path d="M373 111 c-9 -13 -14 -14 -32 -3 -14 8 -21 8 -21 1 0 -5 -6 -7 -12
-3 -10 6 -10 5 -1 -7 14 -18 128 -25 138 -9 4 7 -2 9 -21 4 -22 -6 -26 -4 -21
9 8 21 -17 29 -30 8z"/>
<path d="M1484 118 c-3 -4 -4 -8 -2 -9 37 -10 57 -8 52 5 -6 15 -42 18 -50 4z"/>
<path d="M2101 116 c-8 -10 -9 -16 -1 -21 5 -3 10 -2 10 3 0 5 10 8 23 7 12
-1 14 0 4 2 -9 2 -15 9 -12 14 10 15 -11 10 -24 -5z"/>
<path d="M232 95 c4 -4 3 -14 -3 -22 -9 -10 -8 -13 2 -13 11 0 11 -2 -1 -10
-10 -6 -24 -2 -47 16 -18 14 -33 21 -33 15 0 -5 6 -12 13 -14 9 -4 9 -6 -1 -6
-21 -1 -3 -21 19 -21 19 0 22 -19 4 -32 -5 -4 0 -8 13 -8 15 0 22 6 22 19 0
11 9 22 19 26 20 6 19 40 -3 52 -6 3 -8 3 -4 -2z"/>
<path d="M2591 86 c-9 -11 -7 -15 8 -19 19 -5 36 15 24 27 -10 9 -20 7 -32 -8z"/>
<path d="M70 64 c0 -15 38 -39 48 -30 3 3 1 6 -5 6 -6 0 -10 7 -9 16 0 9 -7
18 -16 19 -10 2 -18 -3 -18 -11z"/>
<path d="M920 9 l-55 -6 73 -1 c39 -1 72 2 72 6 0 9 -15 9 -90 1z"/>
</g>
</svg>
